<mxfile host="app.diagrams.net" agent="Mozilla/5.0 (Windows NT 10.0; Win64; x64) AppleWebKit/537.36 (KHTML, like Gecko) Chrome/131.0.0.0 Safari/537.36" version="24.8.6">
  <diagram name="Page-1" id="KeunrAW8EjzYjiK67Ojo">
    <mxGraphModel dx="1034" dy="716" grid="1" gridSize="10" guides="1" tooltips="1" connect="1" arrows="1" fold="1" page="1" pageScale="1" pageWidth="850" pageHeight="1100" math="0" shadow="0">
      <root>
        <mxCell id="0" />
        <mxCell id="1" parent="0" />
        <mxCell id="2" value="Docker Daemon" style="rounded=1;arcSize=40;strokeWidth=2" parent="1" vertex="1">
          <mxGeometry x="8" y="117" width="142" height="49" as="geometry" />
        </mxCell>
        <mxCell id="3" value="Containerd" style="whiteSpace=wrap;strokeWidth=2;" parent="1" vertex="1">
          <mxGeometry x="200" y="18" width="139" height="49" as="geometry" />
        </mxCell>
        <mxCell id="4" value="RunC" style="whiteSpace=wrap;strokeWidth=2;" parent="1" vertex="1">
          <mxGeometry x="221" y="117" width="96" height="49" as="geometry" />
        </mxCell>
        <mxCell id="5" value="Plugins" style="whiteSpace=wrap;strokeWidth=2;" parent="1" vertex="1">
          <mxGeometry x="214" y="276" width="111" height="49" as="geometry" />
        </mxCell>
        <mxCell id="6" value="Container1" style="whiteSpace=wrap;strokeWidth=2;" parent="1" vertex="1">
          <mxGeometry x="389" y="8" width="138" height="49" as="geometry" />
        </mxCell>
        <mxCell id="7" value="Container2" style="whiteSpace=wrap;strokeWidth=2;" parent="1" vertex="1">
          <mxGeometry x="389" y="127" width="138" height="49" as="geometry" />
        </mxCell>
        <mxCell id="8" value="Volume" style="whiteSpace=wrap;strokeWidth=2;" parent="1" vertex="1">
          <mxGeometry x="401" y="226" width="114" height="49" as="geometry" />
        </mxCell>
        <mxCell id="9" value="Network" style="whiteSpace=wrap;strokeWidth=2;" parent="1" vertex="1">
          <mxGeometry x="398" y="325" width="121" height="49" as="geometry" />
        </mxCell>
        <mxCell id="10" value="" style="curved=1;startArrow=none;endArrow=block;exitX=0.67;exitY=0;entryX=0;entryY=0.5;" parent="1" source="2" target="3" edge="1">
          <mxGeometry relative="1" as="geometry">
            <Array as="points">
              <mxPoint x="175" y="43" />
            </Array>
          </mxGeometry>
        </mxCell>
        <mxCell id="11" value="" style="curved=1;startArrow=none;endArrow=block;exitX=1;exitY=0.5;entryX=0;entryY=0.5;" parent="1" source="2" target="4" edge="1">
          <mxGeometry relative="1" as="geometry">
            <Array as="points" />
          </mxGeometry>
        </mxCell>
        <mxCell id="12" value="" style="curved=1;startArrow=none;endArrow=block;exitX=0.6;exitY=1;entryX=0;entryY=0.49;" parent="1" source="2" target="5" edge="1">
          <mxGeometry relative="1" as="geometry">
            <Array as="points">
              <mxPoint x="175" y="300" />
            </Array>
          </mxGeometry>
        </mxCell>
        <mxCell id="13" value="" style="curved=1;startArrow=none;endArrow=block;exitX=1;exitY=0.2;entryX=0;entryY=0.35;" parent="1" source="3" target="6" edge="1">
          <mxGeometry relative="1" as="geometry">
            <Array as="points">
              <mxPoint x="364" y="23" />
            </Array>
          </mxGeometry>
        </mxCell>
        <mxCell id="14" value="" style="curved=1;startArrow=none;endArrow=block;exitX=0.78;exitY=1;entryX=0.16;entryY=0;" parent="1" source="3" target="7" edge="1">
          <mxGeometry relative="1" as="geometry">
            <Array as="points">
              <mxPoint x="364" y="102" />
            </Array>
          </mxGeometry>
        </mxCell>
        <mxCell id="15" value="" style="curved=1;startArrow=none;endArrow=block;exitX=0.91;exitY=0;entryX=0.16;entryY=1;" parent="1" source="4" target="6" edge="1">
          <mxGeometry relative="1" as="geometry">
            <Array as="points">
              <mxPoint x="364" y="82" />
            </Array>
          </mxGeometry>
        </mxCell>
        <mxCell id="16" value="" style="curved=1;startArrow=none;endArrow=block;exitX=0.99;exitY=1;entryX=0.08;entryY=1;" parent="1" source="4" target="7" edge="1">
          <mxGeometry relative="1" as="geometry">
            <Array as="points">
              <mxPoint x="364" y="191" />
            </Array>
          </mxGeometry>
        </mxCell>
        <mxCell id="17" value="" style="curved=1;startArrow=none;endArrow=block;exitX=0.92;exitY=-0.01;entryX=0;entryY=0.5;" parent="1" source="5" target="8" edge="1">
          <mxGeometry relative="1" as="geometry">
            <Array as="points">
              <mxPoint x="364" y="251" />
            </Array>
          </mxGeometry>
        </mxCell>
        <mxCell id="18" value="" style="curved=1;startArrow=none;endArrow=block;exitX=0.92;exitY=0.99;entryX=0;entryY=0.5;" parent="1" source="5" target="9" edge="1">
          <mxGeometry relative="1" as="geometry">
            <Array as="points">
              <mxPoint x="364" y="350" />
            </Array>
          </mxGeometry>
        </mxCell>
        <mxCell id="uKbDsCT23hQNMCNskq6J-20" value="&lt;font style=&quot;font-size: 20px;&quot;&gt;Docker Host&lt;/font&gt;" style="swimlane;whiteSpace=wrap;html=1;startSize=40;" vertex="1" parent="1">
          <mxGeometry x="214" y="510" width="416" height="480" as="geometry" />
        </mxCell>
        <mxCell id="uKbDsCT23hQNMCNskq6J-21" value="&lt;font style=&quot;font-size: 18px;&quot;&gt;Containers&lt;/font&gt;" style="swimlane;whiteSpace=wrap;html=1;startSize=30;" vertex="1" parent="uKbDsCT23hQNMCNskq6J-20">
          <mxGeometry x="30" y="160" width="120" height="300" as="geometry" />
        </mxCell>
        <mxCell id="uKbDsCT23hQNMCNskq6J-18" value="" style="sketch=0;outlineConnect=0;fontColor=#232F3E;gradientColor=none;strokeColor=#232F3E;fillColor=#ffffff;dashed=0;verticalLabelPosition=bottom;verticalAlign=top;align=center;html=1;fontSize=12;fontStyle=0;aspect=fixed;shape=mxgraph.aws4.resourceIcon;resIcon=mxgraph.aws4.container_1;" vertex="1" parent="uKbDsCT23hQNMCNskq6J-21">
          <mxGeometry x="20" y="45" width="80" height="80" as="geometry" />
        </mxCell>
        <mxCell id="uKbDsCT23hQNMCNskq6J-26" value="Container 1" style="text;html=1;align=center;verticalAlign=middle;whiteSpace=wrap;rounded=0;" vertex="1" parent="uKbDsCT23hQNMCNskq6J-21">
          <mxGeometry x="24.5" y="41" width="70" height="30" as="geometry" />
        </mxCell>
        <mxCell id="uKbDsCT23hQNMCNskq6J-27" value="" style="sketch=0;outlineConnect=0;fontColor=#232F3E;gradientColor=none;strokeColor=#232F3E;fillColor=#ffffff;dashed=0;verticalLabelPosition=bottom;verticalAlign=top;align=center;html=1;fontSize=12;fontStyle=0;aspect=fixed;shape=mxgraph.aws4.resourceIcon;resIcon=mxgraph.aws4.container_1;" vertex="1" parent="uKbDsCT23hQNMCNskq6J-21">
          <mxGeometry x="19.5" y="124" width="80" height="80" as="geometry" />
        </mxCell>
        <mxCell id="uKbDsCT23hQNMCNskq6J-28" value="Container 2" style="text;html=1;align=center;verticalAlign=middle;whiteSpace=wrap;rounded=0;" vertex="1" parent="uKbDsCT23hQNMCNskq6J-21">
          <mxGeometry x="24" y="120" width="70" height="30" as="geometry" />
        </mxCell>
        <mxCell id="uKbDsCT23hQNMCNskq6J-29" value="" style="sketch=0;outlineConnect=0;fontColor=#232F3E;gradientColor=none;strokeColor=#232F3E;fillColor=#ffffff;dashed=0;verticalLabelPosition=bottom;verticalAlign=top;align=center;html=1;fontSize=12;fontStyle=0;aspect=fixed;shape=mxgraph.aws4.resourceIcon;resIcon=mxgraph.aws4.container_1;" vertex="1" parent="uKbDsCT23hQNMCNskq6J-21">
          <mxGeometry x="19" y="204" width="80" height="80" as="geometry" />
        </mxCell>
        <mxCell id="uKbDsCT23hQNMCNskq6J-30" value="Container 3" style="text;html=1;align=center;verticalAlign=middle;whiteSpace=wrap;rounded=0;" vertex="1" parent="uKbDsCT23hQNMCNskq6J-21">
          <mxGeometry x="23.5" y="200" width="70" height="30" as="geometry" />
        </mxCell>
        <mxCell id="uKbDsCT23hQNMCNskq6J-22" value="&lt;font style=&quot;font-size: 18px;&quot;&gt;Images&lt;/font&gt;" style="swimlane;whiteSpace=wrap;html=1;startSize=30;" vertex="1" parent="uKbDsCT23hQNMCNskq6J-20">
          <mxGeometry x="270" y="160" width="121" height="300" as="geometry" />
        </mxCell>
        <mxCell id="uKbDsCT23hQNMCNskq6J-31" value="" style="shape=image;html=1;verticalAlign=top;verticalLabelPosition=bottom;labelBackgroundColor=#ffffff;imageAspect=0;aspect=fixed;image=https://cdn1.iconfinder.com/data/icons/operating-system-flat-1/30/ubuntu-128.png" vertex="1" parent="uKbDsCT23hQNMCNskq6J-22">
          <mxGeometry x="26.5" y="41" width="68" height="68" as="geometry" />
        </mxCell>
        <mxCell id="uKbDsCT23hQNMCNskq6J-23" value="&lt;font style=&quot;font-size: 20px;&quot;&gt;Docker Daemon&lt;/font&gt;" style="html=1;whiteSpace=wrap;container=1;recursiveResize=0;collapsible=0;" vertex="1" parent="uKbDsCT23hQNMCNskq6J-20">
          <mxGeometry x="53.5" y="60" width="309" height="70" as="geometry" />
        </mxCell>
        <mxCell id="uKbDsCT23hQNMCNskq6J-25" value="" style="sketch=0;outlineConnect=0;fontColor=#232F3E;gradientColor=none;fillColor=#232F3D;strokeColor=none;dashed=0;verticalLabelPosition=bottom;verticalAlign=top;align=center;html=1;fontSize=12;fontStyle=0;aspect=fixed;pointerEvents=1;shape=mxgraph.aws4.gear;" vertex="1" parent="uKbDsCT23hQNMCNskq6J-23">
          <mxGeometry x="23.5" y="16" width="38" height="38" as="geometry" />
        </mxCell>
      </root>
    </mxGraphModel>
  </diagram>
</mxfile>
